<svg width="566" height="460" viewBox="0 0 566 460" fill="none" xmlns="http://www.w3.org/2000/svg">
<path fill-rule="evenodd" clip-rule="evenodd" d="M222.391 51.5586H343.992C363.396 51.5586 379.187 67.3482 379.187 86.7572V208.37C379.187 227.779 363.396 243.568 343.992 243.568H222.391C202.983 243.568 187.195 227.779 187.195 208.37V86.7572C187.195 67.3482 202.983 51.5586 222.391 51.5586ZM268.75 205.128H297.726C299.838 205.128 301.548 203.416 301.548 201.304V179.277L320.618 190.288C322.448 191.34 324.782 190.715 325.841 188.889L340.325 163.801C340.832 162.917 340.97 161.873 340.705 160.895C340.448 159.917 339.803 159.082 338.927 158.579L319.857 147.568L338.928 136.557C339.804 136.048 340.445 135.213 340.706 134.235C340.971 133.257 340.833 132.212 340.326 131.337L325.836 106.24C324.777 104.415 322.447 103.782 320.616 104.842L301.546 115.853V93.831C301.546 91.7189 299.836 90.0087 297.726 90.0087H268.75C266.64 90.0087 264.93 91.7202 264.93 93.831V115.852L245.862 104.841C244.98 104.331 243.935 104.203 242.961 104.461C241.983 104.726 241.148 105.364 240.641 106.24L226.157 131.337C225.101 133.162 225.73 135.497 227.555 136.557L246.626 147.568L227.554 158.579C225.726 159.638 225.1 161.973 226.154 163.799L240.643 188.896C241.151 189.772 241.983 190.417 242.964 190.682C243.938 190.933 244.983 190.797 245.862 190.294L264.93 179.289V201.305C264.93 203.416 266.64 205.128 268.75 205.128ZM293.905 197.483H272.572V172.665C272.572 171.302 271.845 170.038 270.661 169.36C269.478 168.682 268.023 168.682 266.839 169.36L245.35 181.769L234.683 163.29L256.179 150.875C257.36 150.196 258.09 148.933 258.09 147.568C258.09 146.204 257.36 144.941 256.179 144.255L234.686 131.846L245.349 113.375L266.839 125.784C268.023 126.462 269.478 126.462 270.661 125.784C271.846 125.098 272.572 123.836 272.572 122.471V97.6533H293.906V122.471C293.906 123.836 294.632 125.098 295.816 125.784C296.997 126.462 298.453 126.462 299.638 125.784L321.127 113.375L331.793 131.846L310.302 144.255C309.122 144.941 308.393 146.204 308.393 147.568C308.393 148.933 309.122 150.196 310.302 150.875L331.797 163.282L321.129 181.761L299.637 169.352C298.453 168.674 296.996 168.674 295.815 169.352C294.631 170.031 293.905 171.294 293.905 172.659V197.483Z" fill="white"/>
<path d="M52.1621 281.074H60.7378V345.461H52.1621V358.517H86.7207V345.461H78.145V268.145H52.1621V281.074ZM138.943 325.236C138.943 337.012 132.287 343.925 123.455 343.925C114.368 343.925 108.096 337.14 108.096 325.236C108.096 313.459 114.624 306.675 123.455 306.675C132.287 306.675 138.943 313.459 138.943 325.236ZM156.734 325.364C156.734 303.859 142.014 291.698 123.455 291.698C104.896 291.698 90.1765 303.859 90.1765 325.364C90.1765 347.381 104.896 359.542 123.455 359.542C142.014 359.542 156.734 347.381 156.734 325.364ZM196.924 291.698C177.597 291.698 163.646 303.859 163.646 325.364C163.646 347.381 177.469 359.542 197.18 359.542C207.42 359.542 217.531 355.829 224.315 350.069L220.219 335.988C214.715 340.469 207.42 343.925 199.228 343.925C189.244 343.925 181.565 337.14 181.565 325.236C181.565 313.843 188.988 307.059 198.844 306.675C201.02 306.803 203.196 307.059 205.372 307.699L206.524 322.164H222.139V296.562C216.763 293.874 206.012 291.698 196.924 291.698ZM228.411 325.364C228.411 347.381 240.442 359.542 256.954 359.542C265.145 359.542 271.545 356.981 276.281 351.861V358.517H302.136V345.461H293.688V292.722H276.281V299.506C271.801 294.258 265.273 291.698 256.954 291.698C240.442 291.698 228.411 303.859 228.411 325.364ZM246.33 325.748C246.33 313.971 252.986 307.187 262.202 307.187C268.857 307.187 274.233 311.155 276.281 317.811V334.068C274.361 340.597 268.857 344.565 262.202 344.565C252.986 344.565 246.33 337.524 246.33 325.748ZM307.384 281.074H315.959V345.461H307.384V358.517H341.942V345.461H333.367V268.145H307.384V281.074ZM347.19 292.722V305.651H355.766V345.461H347.19V358.517H381.749V345.461H373.173V292.722H347.19ZM351.158 275.313C351.158 281.842 356.022 284.914 363.701 284.914C371.381 284.914 376.373 281.842 376.373 275.313C376.373 269.041 371.381 265.969 363.701 265.969C356.022 265.969 351.158 269.041 351.158 275.313ZM444.082 358.517V335.348H432.179L430.131 345.461H407.092L444.082 305.651V292.722H387.38V316.147H399.284L401.46 305.651H423.987L386.996 345.461V358.517H444.082ZM450.226 325.364C450.226 347.381 464.049 359.542 483.888 359.542C495.792 359.542 504.112 355.829 510.895 350.069L506.799 336.372C501.296 340.853 495.664 344.437 487.6 344.437C477.361 344.437 471.089 339.444 468.913 331.252H513.967C514.095 329.332 514.223 325.492 514.223 323.828C514.223 305.011 504.496 291.698 483.504 291.698C464.433 291.698 450.226 303.859 450.226 325.364ZM468.401 320.884C469.809 311.539 475.825 305.779 484.016 305.779C494.64 305.779 499.632 313.203 499.632 320.884H468.401Z" fill="white"/>
<path d="M149.658 407.577V382.392H152.858V407.577H149.658ZM159.77 407.577V382.392H163.066L172.153 398.201L174.873 403.417H175.033C174.969 402.137 174.884 400.814 174.777 399.449C174.692 398.084 174.649 396.74 174.649 395.417V382.392H177.689V407.577H174.393L165.242 391.705L162.522 386.52H162.362C162.468 387.8 162.564 389.102 162.65 390.425C162.735 391.747 162.778 393.07 162.778 394.393V407.577H159.77ZM189.817 407.577V385.08H182.233V382.392H200.664V385.08H193.048V407.577H189.817ZM205.176 407.577V382.392H208.376V404.857H219.383V407.577H205.176ZM219.895 399.161V396.761H228.727V399.161H219.895ZM231.863 404.313L233.783 402.073C234.679 403.033 235.735 403.801 236.951 404.377C238.167 404.953 239.425 405.241 240.726 405.241C242.39 405.241 243.692 404.857 244.63 404.089C245.548 403.343 246.006 402.35 246.006 401.113C246.006 400.473 245.9 399.929 245.686 399.481C245.452 399.033 245.153 398.649 244.79 398.329C244.428 398.009 243.99 397.721 243.478 397.465C242.966 397.209 242.412 396.942 241.814 396.665L238.199 395.097C237.623 394.841 237.025 394.531 236.407 394.169C235.788 393.806 235.233 393.369 234.743 392.857C234.252 392.345 233.857 391.737 233.559 391.033C233.26 390.329 233.111 389.518 233.111 388.6C233.111 387.662 233.303 386.776 233.687 385.944C234.092 385.134 234.647 384.43 235.351 383.832C236.055 383.235 236.887 382.765 237.847 382.424C238.807 382.083 239.862 381.912 241.014 381.912C242.529 381.912 243.926 382.2 245.206 382.776C246.486 383.352 247.574 384.11 248.47 385.048L246.742 387.096C245.974 386.371 245.121 385.795 244.182 385.368C243.244 384.942 242.188 384.728 241.014 384.728C239.606 384.728 238.476 385.059 237.623 385.72C236.748 386.36 236.311 387.256 236.311 388.408C236.311 389.027 236.439 389.55 236.695 389.977C236.929 390.403 237.249 390.777 237.655 391.097C238.081 391.417 238.529 391.694 238.998 391.929C239.489 392.163 239.99 392.387 240.502 392.601L244.086 394.137C244.79 394.435 245.462 394.787 246.102 395.193C246.742 395.598 247.297 396.057 247.766 396.569C248.235 397.102 248.598 397.721 248.854 398.425C249.131 399.129 249.27 399.94 249.27 400.857C249.27 401.86 249.067 402.799 248.662 403.673C248.278 404.527 247.713 405.284 246.966 405.945C246.22 406.607 245.324 407.119 244.278 407.481C243.233 407.844 242.038 408.025 240.694 408.025C238.924 408.025 237.292 407.695 235.799 407.033C234.284 406.372 232.972 405.465 231.863 404.313ZM252.758 394.969C252.758 392.963 253.035 391.15 253.59 389.529C254.166 387.907 254.955 386.542 255.958 385.432C256.939 384.302 258.123 383.438 259.51 382.84C260.875 382.221 262.358 381.912 263.957 381.912C265.493 381.912 266.837 382.232 267.989 382.872C269.141 383.491 270.091 384.216 270.837 385.048L269.045 387.064C268.384 386.36 267.648 385.795 266.837 385.368C266.027 384.942 265.088 384.728 264.021 384.728C262.806 384.728 261.718 384.963 260.758 385.432C259.776 385.902 258.944 386.584 258.262 387.48C257.558 388.355 257.014 389.422 256.63 390.681C256.246 391.939 256.054 393.347 256.054 394.905C256.054 396.484 256.246 397.913 256.63 399.193C256.992 400.452 257.504 401.529 258.166 402.425C258.827 403.321 259.638 404.015 260.598 404.505C261.558 404.996 262.646 405.241 263.861 405.241C265.077 405.241 266.144 404.996 267.061 404.505C267.979 404.015 268.843 403.321 269.653 402.425L271.445 404.377C270.464 405.529 269.344 406.425 268.085 407.065C266.827 407.705 265.387 408.025 263.765 408.025C262.187 408.025 260.726 407.737 259.382 407.161C258.038 406.564 256.875 405.711 255.894 404.601C254.912 403.492 254.145 402.126 253.59 400.505C253.035 398.862 252.758 397.017 252.758 394.969ZM276.149 407.577V382.392H279.317V392.953H291.028V382.392H294.26V407.577H291.028V395.705H279.317V407.577H276.149ZM301.172 407.577V382.392H315.699V385.08H304.372V392.985H313.939V395.705H304.372V404.857H316.083V407.577H301.172ZM321.427 407.577V382.392H325.171L330.067 395.897L331.891 401.049H332.051L333.811 395.897L338.642 382.392H342.418V407.577H339.378V393.721C339.378 392.59 339.421 391.342 339.506 389.977C339.613 388.632 339.709 387.395 339.794 386.264H339.666L337.618 391.865L332.787 405.049H330.963L326.099 391.865L324.115 386.264H323.955C324.019 387.395 324.104 388.632 324.211 389.977C324.318 391.342 324.371 392.59 324.371 393.721V407.577H321.427ZM352.466 397.337H360.049L358.866 393.497C358.396 392.089 357.959 390.681 357.554 389.272C357.148 387.886 356.732 386.456 356.306 384.984H356.178C355.794 386.456 355.388 387.886 354.962 389.272C354.556 390.681 354.13 392.089 353.682 393.497L352.466 397.337ZM363.217 407.577L360.849 399.897H351.666L349.266 407.577H346.002L354.514 382.392H358.13L366.641 407.577H363.217ZM373.905 407.577V385.08H366.289V382.392H384.72V385.08H377.137V407.577H373.905ZM389.264 407.577V382.392H392.464V407.577H389.264ZM397.904 394.969C397.904 392.963 398.181 391.15 398.736 389.529C399.312 387.907 400.101 386.542 401.104 385.432C402.085 384.302 403.269 383.438 404.656 382.84C406.021 382.221 407.504 381.912 409.103 381.912C410.639 381.912 411.983 382.232 413.135 382.872C414.287 383.491 415.237 384.216 415.983 385.048L414.191 387.064C413.53 386.36 412.794 385.795 411.983 385.368C411.173 384.942 410.234 384.728 409.167 384.728C407.951 384.728 406.864 384.963 405.904 385.432C404.922 385.902 404.09 386.584 403.408 387.48C402.704 388.355 402.16 389.422 401.776 390.681C401.392 391.939 401.2 393.347 401.2 394.905C401.2 396.484 401.392 397.913 401.776 399.193C402.138 400.452 402.65 401.529 403.312 402.425C403.973 403.321 404.784 404.015 405.744 404.505C406.704 404.996 407.791 405.241 409.007 405.241C410.223 405.241 411.29 404.996 412.207 404.505C413.125 404.015 413.989 403.321 414.799 402.425L416.591 404.377C415.61 405.529 414.49 406.425 413.231 407.065C411.973 407.705 410.533 408.025 408.911 408.025C407.333 408.025 405.872 407.737 404.528 407.161C403.184 406.564 402.021 405.711 401.04 404.601C400.058 403.492 399.291 402.126 398.736 400.505C398.181 398.862 397.904 397.017 397.904 394.969Z" fill="white"/>
</svg>
