<svg width="565" height="460" viewBox="0 0 565 460" fill="none" xmlns="http://www.w3.org/2000/svg">
<path fill-rule="evenodd" clip-rule="evenodd" d="M221.613 51.5586H343.215C362.619 51.5586 378.41 67.3482 378.41 86.7572V208.37C378.41 227.779 362.619 243.568 343.215 243.568H221.613C202.206 243.568 186.418 227.779 186.418 208.37V86.7572C186.418 67.3482 202.206 51.5586 221.613 51.5586ZM267.973 205.128H296.948C299.06 205.128 300.77 203.416 300.77 201.304V179.277L319.84 190.288C321.67 191.34 324.005 190.715 325.064 188.889L339.547 163.801C340.054 162.917 340.193 161.873 339.928 160.895C339.67 159.917 339.025 159.082 338.15 158.579L319.08 147.568L338.151 136.557C339.026 136.048 339.668 135.213 339.929 134.235C340.194 133.257 340.056 132.213 339.549 131.337L325.058 106.24C324 104.415 321.669 103.782 319.839 104.842L300.769 115.853V93.831C300.769 91.7189 299.059 90.0088 296.948 90.0088H267.973C265.862 90.0088 264.152 91.7202 264.152 93.831V115.852L245.085 104.841C244.203 104.331 243.157 104.203 242.183 104.461C241.205 104.726 240.371 105.364 239.864 106.24L225.38 131.337C224.324 133.162 224.952 135.497 226.778 136.557L245.849 147.568L226.776 158.579C224.949 159.638 224.323 161.973 225.376 163.799L239.865 188.896C240.373 189.772 241.205 190.417 242.187 190.682C243.161 190.933 244.205 190.797 245.085 190.294L264.152 179.289V201.305C264.152 203.416 265.862 205.128 267.973 205.128ZM293.128 197.483H271.795V172.665C271.795 171.302 271.068 170.038 269.884 169.36C268.701 168.682 267.246 168.682 266.062 169.36L244.573 181.769L233.906 163.29L255.401 150.875C256.583 150.196 257.312 148.933 257.312 147.568C257.312 146.204 256.583 144.941 255.401 144.255L233.908 131.846L244.571 113.375L266.062 125.784C267.246 126.462 268.701 126.462 269.884 125.784C271.069 125.098 271.795 123.836 271.795 122.471V97.6533H293.129V122.471C293.129 123.836 293.855 125.098 295.039 125.784C296.22 126.462 297.675 126.462 298.86 125.784L320.349 113.375L331.015 131.846L309.525 144.255C308.345 144.941 307.615 146.204 307.615 147.568C307.615 148.933 308.345 150.196 309.525 150.875L331.019 163.282L320.352 181.761L298.859 169.352C297.675 168.674 296.219 168.674 295.037 169.352C293.853 170.031 293.128 171.294 293.128 172.659V197.483Z" fill="black"/>
<path d="M51.3848 281.073H59.9604V345.46H51.3848V358.517H85.9433V345.46H77.3677V268.144H51.3848V281.073ZM138.165 325.235C138.165 337.012 131.509 343.924 122.678 343.924C113.59 343.924 107.318 337.14 107.318 325.235C107.318 313.459 113.846 306.674 122.678 306.674C131.509 306.674 138.165 313.459 138.165 325.235ZM155.956 325.363C155.956 303.858 141.237 291.698 122.678 291.698C104.119 291.698 89.3992 303.858 89.3992 325.363C89.3992 347.38 104.119 359.541 122.678 359.541C141.237 359.541 155.956 347.38 155.956 325.363ZM196.147 291.698C176.82 291.698 162.868 303.858 162.868 325.363C162.868 347.38 176.692 359.541 196.403 359.541C206.642 359.541 216.754 355.829 223.538 350.069L219.442 335.988C213.938 340.468 206.642 343.924 198.451 343.924C188.467 343.924 180.787 337.14 180.787 325.235C180.787 313.843 188.211 307.058 198.067 306.674C200.243 306.802 202.419 307.058 204.594 307.698L205.746 322.163H221.362V296.562C215.986 293.874 205.234 291.698 196.147 291.698ZM227.634 325.363C227.634 347.38 239.665 359.541 256.176 359.541C264.368 359.541 270.768 356.981 275.504 351.861V358.517H301.359V345.46H292.911V292.722H275.504V299.506C271.024 294.258 264.496 291.698 256.176 291.698C239.665 291.698 227.634 303.858 227.634 325.363ZM245.553 325.747C245.553 313.971 252.209 307.186 261.424 307.186C268.08 307.186 273.456 311.155 275.504 317.811V334.068C273.584 340.596 268.08 344.564 261.424 344.564C252.209 344.564 245.553 337.524 245.553 325.747ZM306.606 281.073H315.182V345.46H306.606V358.517H341.165V345.46H332.589V268.144H306.606V281.073ZM346.413 292.722V305.65H354.988V345.46H346.413V358.517H380.971V345.46H372.396V292.722H346.413ZM350.381 275.313C350.381 281.841 355.244 284.913 362.924 284.913C370.604 284.913 375.595 281.841 375.595 275.313C375.595 269.04 370.604 265.968 362.924 265.968C355.244 265.968 350.381 269.04 350.381 275.313ZM443.305 358.517V335.348H431.401L429.353 345.46H406.314L443.305 305.65V292.722H386.603V316.147H398.507L400.682 305.65H423.21L386.219 345.46V358.517H443.305ZM449.448 325.363C449.448 347.38 463.272 359.541 483.111 359.541C495.015 359.541 503.334 355.829 510.118 350.069L506.022 336.372C500.518 340.852 494.887 344.436 486.823 344.436C476.583 344.436 470.312 339.444 468.136 331.252H513.19C513.318 329.331 513.446 325.491 513.446 323.827C513.446 305.01 503.718 291.698 482.727 291.698C463.656 291.698 449.448 303.858 449.448 325.363ZM467.624 320.883C469.032 311.539 475.047 305.778 483.239 305.778C493.863 305.778 498.854 313.203 498.854 320.883H467.624Z" fill="black"/>
<path d="M148.881 407.577V382.392H152.081V407.577H148.881ZM158.992 407.577V382.392H162.288L171.376 398.2L174.096 403.417H174.256C174.192 402.137 174.106 400.814 174 399.449C173.914 398.083 173.872 396.739 173.872 395.416V382.392H176.912V407.577H173.616L164.464 391.704L161.744 386.52H161.584C161.691 387.8 161.787 389.101 161.872 390.424C161.958 391.747 162 393.07 162 394.392V407.577H158.992ZM189.039 407.577V385.08H181.456V382.392H199.887V385.08H192.271V407.577H189.039ZM204.399 407.577V382.392H207.598V404.857H218.606V407.577H204.399ZM219.118 399.161V396.76H227.95V399.161H219.118ZM231.085 404.313L233.005 402.073C233.901 403.033 234.957 403.801 236.173 404.377C237.389 404.953 238.648 405.241 239.949 405.241C241.613 405.241 242.914 404.857 243.853 404.089C244.77 403.342 245.229 402.35 245.229 401.113C245.229 400.473 245.122 399.929 244.909 399.481C244.674 399.032 244.376 398.648 244.013 398.328C243.65 398.008 243.213 397.72 242.701 397.464C242.189 397.208 241.634 396.942 241.037 396.664L237.421 395.096C236.845 394.84 236.248 394.531 235.629 394.168C235.011 393.806 234.456 393.368 233.965 392.856C233.475 392.344 233.08 391.736 232.781 391.032C232.483 390.328 232.333 389.517 232.333 388.6C232.333 387.661 232.525 386.776 232.909 385.944C233.315 385.133 233.869 384.429 234.573 383.832C235.277 383.234 236.109 382.765 237.069 382.424C238.029 382.082 239.085 381.912 240.237 381.912C241.752 381.912 243.149 382.2 244.429 382.776C245.709 383.352 246.797 384.109 247.693 385.048L245.965 387.096C245.197 386.371 244.344 385.794 243.405 385.368C242.466 384.941 241.41 384.728 240.237 384.728C238.829 384.728 237.699 385.058 236.845 385.72C235.971 386.36 235.533 387.256 235.533 388.408C235.533 389.027 235.661 389.549 235.917 389.976C236.152 390.403 236.472 390.776 236.877 391.096C237.304 391.416 237.752 391.693 238.221 391.928C238.712 392.163 239.213 392.387 239.725 392.6L243.309 394.136C244.013 394.435 244.685 394.787 245.325 395.192C245.965 395.598 246.519 396.056 246.989 396.568C247.458 397.102 247.821 397.72 248.077 398.424C248.354 399.129 248.493 399.939 248.493 400.857C248.493 401.859 248.29 402.798 247.885 403.673C247.501 404.526 246.935 405.283 246.189 405.945C245.442 406.606 244.546 407.118 243.501 407.481C242.456 407.844 241.261 408.025 239.917 408.025C238.146 408.025 236.515 407.694 235.021 407.033C233.507 406.372 232.195 405.465 231.085 404.313ZM251.981 394.968C251.981 392.963 252.258 391.149 252.813 389.528C253.389 387.907 254.178 386.541 255.18 385.432C256.162 384.301 257.346 383.437 258.732 382.84C260.098 382.221 261.58 381.912 263.18 381.912C264.716 381.912 266.06 382.232 267.212 382.872C268.364 383.49 269.313 384.216 270.06 385.048L268.268 387.064C267.607 386.36 266.871 385.794 266.06 385.368C265.249 384.941 264.311 384.728 263.244 384.728C262.028 384.728 260.94 384.962 259.98 385.432C258.999 385.901 258.167 386.584 257.484 387.48C256.78 388.355 256.236 389.421 255.852 390.68C255.468 391.939 255.276 393.347 255.276 394.904C255.276 396.483 255.468 397.912 255.852 399.193C256.215 400.451 256.727 401.529 257.388 402.425C258.05 403.321 258.86 404.014 259.82 404.505C260.78 404.995 261.868 405.241 263.084 405.241C264.3 405.241 265.367 404.995 266.284 404.505C267.201 404.014 268.065 403.321 268.876 402.425L270.668 404.377C269.687 405.529 268.567 406.425 267.308 407.065C266.049 407.705 264.609 408.025 262.988 408.025C261.41 408.025 259.948 407.737 258.604 407.161C257.26 406.564 256.098 405.71 255.116 404.601C254.135 403.491 253.367 402.126 252.813 400.505C252.258 398.862 251.981 397.016 251.981 394.968ZM275.372 407.577V382.392H278.539V392.952H290.251V382.392H293.483V407.577H290.251V395.704H278.539V407.577H275.372ZM300.395 407.577V382.392H314.922V385.08H303.594V392.984H313.162V395.704H303.594V404.857H315.306V407.577H300.395ZM320.65 407.577V382.392H324.394L329.289 395.896L331.113 401.049H331.273L333.033 395.896L337.865 382.392H341.641V407.577H338.601V393.72C338.601 392.59 338.644 391.341 338.729 389.976C338.836 388.632 338.932 387.395 339.017 386.264H338.889L336.841 391.864L332.009 405.049H330.185L325.322 391.864L323.338 386.264H323.178C323.242 387.395 323.327 388.632 323.434 389.976C323.54 391.341 323.594 392.59 323.594 393.72V407.577H320.65ZM351.688 397.336H359.272L358.088 393.496C357.619 392.088 357.182 390.68 356.776 389.272C356.371 387.885 355.955 386.456 355.528 384.984H355.4C355.016 386.456 354.611 387.885 354.184 389.272C353.779 390.68 353.352 392.088 352.904 393.496L351.688 397.336ZM362.44 407.577L360.072 399.897H350.888L348.489 407.577H345.225L353.736 382.392H357.352L365.864 407.577H362.44ZM373.128 407.577V385.08H365.512V382.392H383.943V385.08H376.359V407.577H373.128ZM388.487 407.577V382.392H391.687V407.577H388.487ZM397.127 394.968C397.127 392.963 397.404 391.149 397.959 389.528C398.534 387.907 399.324 386.541 400.326 385.432C401.308 384.301 402.492 383.437 403.878 382.84C405.244 382.221 406.726 381.912 408.326 381.912C409.862 381.912 411.206 382.232 412.358 382.872C413.51 383.49 414.459 384.216 415.206 385.048L413.414 387.064C412.753 386.36 412.017 385.794 411.206 385.368C410.395 384.941 409.457 384.728 408.39 384.728C407.174 384.728 406.086 384.962 405.126 385.432C404.145 385.901 403.313 386.584 402.63 387.48C401.926 388.355 401.382 389.421 400.998 390.68C400.614 391.939 400.422 393.347 400.422 394.904C400.422 396.483 400.614 397.912 400.998 399.193C401.361 400.451 401.873 401.529 402.534 402.425C403.196 403.321 404.006 404.014 404.966 404.505C405.926 404.995 407.014 405.241 408.23 405.241C409.446 405.241 410.513 404.995 411.43 404.505C412.347 404.014 413.211 403.321 414.022 402.425L415.814 404.377C414.832 405.529 413.713 406.425 412.454 407.065C411.195 407.705 409.755 408.025 408.134 408.025C406.555 408.025 405.094 407.737 403.75 407.161C402.406 406.564 401.244 405.71 400.262 404.601C399.281 403.491 398.513 402.126 397.959 400.505C397.404 398.862 397.127 397.016 397.127 394.968Z" fill="black"/>
</svg>
